<?xml version="1.0" encoding="UTF-8" standalone="no"?>
<!-- Created with Inkscape (http://www.inkscape.org/) -->

<svg
   width="120"
   height="160"
   viewBox="0 0 120 160"
   version="1.1"
   id="svg1"
   inkscape:version="1.3.2 (091e20ef0f, 2023-11-25, custom)"
   sodipodi:docname="player.svg"
   inkscape:export-filename="player.png"
   inkscape:export-xdpi="96"
   inkscape:export-ydpi="96"
   xml:space="preserve"
   xmlns:inkscape="http://www.inkscape.org/namespaces/inkscape"
   xmlns:sodipodi="http://sodipodi.sourceforge.net/DTD/sodipodi-0.dtd"
   xmlns="http://www.w3.org/2000/svg"
   xmlns:svg="http://www.w3.org/2000/svg"><sodipodi:namedview
     id="namedview1"
     pagecolor="#505050"
     bordercolor="#ffffff"
     borderopacity="1"
     inkscape:showpageshadow="0"
     inkscape:pageopacity="0"
     inkscape:pagecheckerboard="1"
     inkscape:deskcolor="#505050"
     inkscape:document-units="px"
     inkscape:zoom="5.7798541"
     inkscape:cx="55.797257"
     inkscape:cy="130.1936"
     inkscape:window-width="1444"
     inkscape:window-height="1043"
     inkscape:window-x="472"
     inkscape:window-y="0"
     inkscape:window-maximized="0"
     inkscape:current-layer="layer2"
     showgrid="true"><inkscape:grid
       id="grid7"
       units="px"
       originx="0"
       originy="0"
       spacingx="1"
       spacingy="1"
       empcolor="#0099e5"
       empopacity="0.30196078"
       color="#0099e5"
       opacity="0.1254902"
       empspacing="1"
       dotted="false"
       gridanglex="30"
       gridanglez="30"
       visible="true" /><inkscape:grid
       id="grid1"
       units="px"
       originx="0"
       originy="0"
       spacingx="40"
       spacingy="40"
       empcolor="#e50000"
       empopacity="0.30196078"
       color="#e50000"
       opacity="0.14901961"
       empspacing="0"
       dotted="false"
       gridanglex="30"
       gridanglez="30"
       visible="true" /></sodipodi:namedview><defs
     id="defs1"><inkscape:perspective
       sodipodi:type="inkscape:persp3d"
       inkscape:vp_x="-15.251036 : 65.783309 : 1"
       inkscape:vp_y="0 : 1350.9203 : 0"
       inkscape:vp_z="366.96139 : 65.783309 : 1"
       inkscape:persp3d-origin="175.85518 : 29.758767 : 1"
       id="perspective11" /></defs><g
     inkscape:label="Layer 1"
     inkscape:groupmode="layer"
     id="layer1" /><g
     inkscape:groupmode="layer"
     id="layer2"
     inkscape:label="sprite"><rect
       style="fill:#0921e1;fill-opacity:0.99988198;stroke-width:0.796233;stroke-dasharray:none;image-rendering:auto"
       id="rect16"
       width="24.775053"
       height="5.220314"
       x="-7.1493936"
       y="-31.362942"
       transform="matrix(0.72868751,-0.68484634,-0.67626543,-0.73665804,0,0)" /><path
       style="fill:#0214bf;fill-opacity:0.99988198;stroke-width:0.930261;stroke-dasharray:none"
       d="m 7.4963178,18.670862 v 13 H 20.496318 Z"
       id="path16"
       sodipodi:nodetypes="cccc" /><rect
       style="fill:#0921e1;fill-opacity:0.999882;stroke-width:0.796233;stroke-dasharray:none;image-rendering:auto"
       id="rect16-5"
       width="24.775053"
       height="5.220314"
       x="48.179825"
       y="-29.618263"
       transform="matrix(0.68484634,0.72868751,0.73665804,-0.67626543,0,0)" /><path
       style="fill:#0214bf;fill-opacity:0.999882;stroke-width:0.930261;stroke-dasharray:none"
       d="m 20.506383,46.634161 h -13 v 13 z"
       id="path16-3"
       sodipodi:nodetypes="cccc" /><rect
       style="fill:#0921e1;fill-opacity:0.999882;stroke-width:0.796233;stroke-dasharray:none;image-rendering:auto"
       id="rect16-5-9"
       width="24.775053"
       height="5.220314"
       x="77.218475"
       y="0.39105302"
       transform="matrix(0.68484634,0.72868751,0.73665804,-0.67626543,0,0)" /><path
       style="fill:#0214bf;fill-opacity:0.999882;stroke-width:0.930261;stroke-dasharray:none"
       d="m 62.5,47.5 h -13 v 13 z"
       id="path16-3-1"
       sodipodi:nodetypes="cccc" /><rect
       style="fill:#0921e1;fill-opacity:0.999882;stroke-width:0.796233;stroke-dasharray:none;image-rendering:auto"
       id="rect16-5-93"
       width="24.775053"
       height="5.220314"
       x="103.48956"
       y="30.956038"
       transform="matrix(0.68484634,0.72868751,0.73665804,-0.67626543,0,0)" /><path
       style="fill:#0214bf;fill-opacity:0.999882;stroke-width:0.930261;stroke-dasharray:none"
       d="M 103.0076,45.973365 H 90.007596 v 13 z"
       id="path16-3-6"
       sodipodi:nodetypes="cccc" /><rect
       style="fill:#0921e1;fill-opacity:0.999882;stroke-width:0.796233;stroke-dasharray:none;image-rendering:auto"
       id="rect16-5-6"
       width="24.775053"
       height="5.220314"
       x="43.348087"
       y="83.472198"
       transform="matrix(-0.72868751,0.68484634,0.67626543,0.73665804,0,0)" /><path
       style="fill:#0214bf;fill-opacity:0.999882;stroke-width:0.930261;stroke-dasharray:none"
       d="M 33.365839,100.50638 V 87.506381 h -13 z"
       id="path16-3-18"
       sodipodi:nodetypes="cccc" /><rect
       style="fill:#0921e1;fill-opacity:0.999882;stroke-width:0.796233;stroke-dasharray:none;image-rendering:auto"
       id="rect16-5-6-6"
       width="24.775053"
       height="5.220314"
       x="-126.4958"
       y="78.695816"
       transform="matrix(-0.68484634,-0.72868751,-0.73665804,0.67626543,0,0)" /><path
       style="fill:#0214bf;fill-opacity:0.999882;stroke-width:0.930261;stroke-dasharray:none"
       d="m 19.329141,153.89886 h 13 v -13 z"
       id="path16-3-18-1"
       sodipodi:nodetypes="cccc" /><rect
       style="fill:#0921e1;fill-opacity:0.999882;stroke-width:0.796233;stroke-dasharray:none;image-rendering:auto"
       id="rect16-5-0"
       width="24.775053"
       height="5.220314"
       x="13.178874"
       y="111.51951"
       transform="matrix(-0.72868751,0.68484634,0.67626543,0.73665804,0,0)" /><path
       style="fill:#0214bf;fill-opacity:0.999882;stroke-width:0.930261;stroke-dasharray:none"
       d="M 74.317189,100.50639 V 87.506382 H 61.317192 Z"
       id="path16-3-2"
       sodipodi:nodetypes="cccc" /><rect
       style="fill:#0921e1;fill-opacity:0.999882;stroke-width:0.796233;stroke-dasharray:none;image-rendering:auto"
       id="rect16-5-92"
       width="24.775053"
       height="5.220314"
       x="-17.464632"
       y="138.61926"
       transform="matrix(-0.72868751,0.68484634,0.67626543,0.73665804,0,0)" /><path
       style="fill:#0214bf;fill-opacity:0.999882;stroke-width:0.930261;stroke-dasharray:none"
       d="m 114.97336,99.48355 v -13 h -13 z"
       id="path16-3-28"
       sodipodi:nodetypes="cccc" /><path
       style="fill:#f6f7ff;fill-opacity:0.999882;stroke-width:0.0865074;stroke-dasharray:none"
       d="m 46.799805,25.6241 v -6.422632 l 2.593855,2.592774 2.593855,2.592775 0.412276,-0.396758 c 0.226752,-0.218218 3.993681,-3.755927 8.370955,-7.861577 4.377273,-4.105649 8.196711,-7.6959503 8.48764,-7.9784462 l 0.528962,-0.5136288 1.692574,1.8458044 c 0.930915,1.0151926 1.705019,1.8706046 1.720229,1.9009166 0.01521,0.03031 -3.913836,3.759672 -8.731215,8.287468 -4.81738,4.527796 -8.758872,8.278731 -8.758872,8.335413 0,0.05668 0.885302,0.988987 1.967338,2.07179 l 1.967337,1.968733 h -6.422467 -6.422467 z"
       id="path17" /><path
       style="fill:#f6f7ff;fill-opacity:0.999882;stroke-width:0.0865074;stroke-dasharray:none"
       d="m 87.899298,25.645086 c 0,-3.52085 0.0292,-6.401236 0.06488,-6.400857 0.03568,3.79e-4 1.21284,1.148069 2.615901,2.550423 l 2.551021,2.549733 0.476738,-0.460944 C 93.870044,23.62992 97.646516,20.082372 102,16 c 4.35348,-4.082373 8.13404,-7.634175 8.40122,-7.892894 l 0.4858,-0.470399 1.69249,1.845704 c 0.93086,1.015138 1.70493,1.870591 1.72013,1.901007 0.0152,0.03042 -1.41269,1.410115 -3.17311,3.065997 -8.43611,7.935126 -13.283724,12.497883 -13.796826,12.986084 l -0.563401,0.536056 2.032233,2.037539 2.032234,2.037538 h -6.465736 -6.465736 z"
       id="path18" /><rect
       style="fill:#f6f7ff;fill-opacity:0.999882;stroke-width:1;stroke-dasharray:none"
       id="rect18"
       width="6"
       height="6"
       x="50"
       y="10" /><rect
       style="fill:#0921e1;fill-opacity:0.999882;stroke-width:0.796233;stroke-dasharray:none;image-rendering:auto"
       id="rect16-5-6-6-4"
       width="24.775053"
       height="5.220314"
       x="-152.19603"
       y="49.287594"
       transform="matrix(-0.68484634,-0.72868751,-0.73665804,0.67626543,0,0)" /><path
       style="fill:#0214bf;fill-opacity:0.999882;stroke-width:0.930261;stroke-dasharray:none"
       d="m 58.59366,152.73854 h 13 v -13 z"
       id="path16-3-18-1-5"
       sodipodi:nodetypes="cccc" /><rect
       style="fill:#ffffff;fill-opacity:0.99988198;stroke-width:0.796233;stroke-dasharray:none;image-rendering:auto"
       id="rect16-5-6-6-1"
       width="24.775053"
       height="5.220314"
       x="-178.49619"
       y="18.691303"
       transform="matrix(-0.68484634,-0.72868751,-0.73665804,0.67626543,0,0)" /><path
       style="fill:#ffffff;fill-opacity:0.99988198;stroke-width:0.930261;stroke-dasharray:none"
       d="m 99.144221,151.21191 h 12.999999 v -13 z"
       id="path16-3-18-1-0"
       sodipodi:nodetypes="cccc" /><path
       style="fill:#ffffff;fill-opacity:0.999882;stroke-width:0.173015;stroke-dasharray:none"
       d="m 55.485537,138.47953 -8.225025,-8.75602 1.0676,-0.98721 c 0.587179,-0.54296 1.420882,-1.30775 1.852674,-1.69953 l 0.785075,-0.71233 7.000588,7.44871 c 3.850324,4.09679 7.53815,8.02922 8.195166,8.73874 l 1.194577,1.29003 -1.710375,1.71681 c -0.940706,0.94425 -1.760973,1.71682 -1.822815,1.71682 -0.06184,0 -3.813701,-3.94021 -8.337465,-8.75602 z"
       id="path23" /><path
       style="fill:#ffffff;fill-opacity:0.999882;stroke-width:0.173015;stroke-dasharray:none"
       d="m 65.140053,146.37048 c 3.424701,-3.42569 6.246598,-6.22853 6.270883,-6.22853 0.02429,0 0.04415,2.80284 0.04415,6.22853 v 6.22853 h -6.270883 -6.270884 z"
       id="path24" /><path
       style="fill:#ffffff;fill-opacity:0.999882;stroke-width:0.173015;stroke-dasharray:none"
       d="m 49.632175,110.03344 c -0.89132,-0.96221 -1.633045,-1.80262 -1.648277,-1.8676 -0.01523,-0.065 3.905601,-3.80733 8.712964,-8.316351 l 8.740659,-8.198222 1.77986,1.796676 1.779859,1.796676 -8.75002,8.218201 c -4.812511,4.52001 -8.80502,8.24112 -8.872242,8.26914 -0.06722,0.028 -0.851484,-0.73632 -1.742803,-1.69852 z"
       id="path26" /><path
       style="fill:#ffffff;fill-opacity:0.999882;stroke-width:0.173015;stroke-dasharray:none"
       d="m 67.821782,93.860501 -6.313261,-6.315038 h 6.357403 6.357403 v 6.315038 c 0,3.473271 -0.01986,6.315039 -0.04414,6.315039 -0.02428,0 -2.88511,-2.841768 -6.357403,-6.315039 z"
       id="path27" /><path
       style="fill:#ffffff;fill-opacity:0.999882;stroke-width:0.173015;stroke-dasharray:none"
       d="m 91.523923,110.38585 c -0.237412,-0.28091 -0.998628,-1.12964 -1.691591,-1.88608 l -1.259934,-1.37535 8.650526,-8.145836 c 4.757786,-4.480213 8.712986,-8.145841 8.789326,-8.145841 0.29873,0 3.57556,3.459472 3.41364,3.603909 -0.80615,0.719089 -15.173996,14.215168 -16.17182,15.190598 l -1.298489,1.26934 z"
       id="path29" /><path
       style="fill:#ffffff;fill-opacity:0.999882;stroke-width:0.173015;stroke-dasharray:none"
       d="m 108.48025,92.822413 -6.31326,-6.315039 h 6.3574 6.3574 v 6.315039 c 0,3.473271 -0.0199,6.315038 -0.0441,6.315038 -0.0243,0 -2.88511,-2.841767 -6.3574,-6.315038 z"
       id="path30" /><path
       style="fill:#ffffff;fill-opacity:0.999882;stroke-width:0.173015;stroke-dasharray:none"
       d="M 102.74419,63.965059 C 98.429111,59.36975 94.747448,55.434868 94.562719,55.220875 l -0.33587,-0.389077 1.717551,-1.724021 c 0.944654,-0.948212 1.76974,-1.704191 1.833526,-1.679955 0.06379,0.02424 3.817774,3.975826 8.342194,8.781311 l 8.22623,8.737244 -1.7652,1.679392 c -0.97086,0.923667 -1.81609,1.682769 -1.87828,1.686894 -0.0622,0.0041 -3.6436,-3.752295 -7.95868,-8.347604 z"
       id="path32" /><path
       style="fill:#ffffff;fill-opacity:0.999882;stroke-width:0.173015;stroke-dasharray:none"
       d="m 90.140684,52.336962 v -6.315039 h 6.357403 6.357403 l -6.31326,6.315039 C 93.069937,55.810233 90.209105,58.652 90.184827,58.652 c -0.02428,0 -0.04414,-2.841767 -0.04414,-6.315038 z"
       id="path33" /><path
       style="fill:#ffffff;fill-opacity:0.999882;stroke-width:0.173015;stroke-dasharray:none"
       d="m 62.376019,65.654882 c -4.251742,-4.520791 -7.930983,-8.457953 -8.176092,-8.749248 l -0.445653,-0.529629 1.711113,-1.717558 c 0.941113,-0.944657 1.764917,-1.697729 1.830677,-1.673492 0.06576,0.02424 3.816104,3.975826 8.334099,8.78131 l 8.214537,8.737245 -1.484503,1.382954 c -0.816475,0.760626 -1.657581,1.519099 -1.869121,1.685496 -0.383514,0.301672 -0.406825,0.278929 -8.115057,-7.917078 z"
       id="path35" /><path
       style="fill:#ffffff;fill-opacity:0.999882;stroke-width:0.173015;stroke-dasharray:none"
       d="m 49.655233,53.820643 v -6.241587 h 6.241984 6.241985 l -3.506986,3.619841 c -1.928842,1.990913 -4.737735,4.799627 -6.241984,6.241588 l -2.734999,2.621746 z"
       id="path36" /><rect
       style="fill:#f6f7ff;fill-opacity:0.999882;stroke-width:1;stroke-dasharray:none"
       id="rect18-0"
       width="6"
       height="6"
       x="106.99999"
       y="23.594707" /><rect
       style="fill:#f6f7ff;fill-opacity:0.999882;stroke-width:1;stroke-dasharray:none"
       id="rect18-5"
       width="6"
       height="6"
       x="64"
       y="50" /><rect
       style="fill:#f6f7ff;fill-opacity:0.999882;stroke-width:1;stroke-dasharray:none"
       id="rect18-56"
       width="6"
       height="6"
       x="90"
       y="64" /><rect
       style="fill:#f6f7ff;fill-opacity:0.999882;stroke-width:1;stroke-dasharray:none"
       id="rect18-4"
       width="6"
       height="6"
       x="64"
       y="104" /><rect
       style="fill:#f6f7ff;fill-opacity:0.999882;stroke-width:1;stroke-dasharray:none"
       id="rect18-47"
       width="6"
       height="6"
       x="88"
       y="89" /><rect
       style="fill:#f6f7ff;fill-opacity:0.999882;stroke-width:1;stroke-dasharray:none"
       id="rect18-07"
       width="6"
       height="6"
       x="46"
       y="142" /><rect
       style="fill:#f6f7ff;fill-opacity:0.999882;stroke-width:1;stroke-dasharray:none"
       id="rect18-8"
       width="6"
       height="6"
       x="106"
       y="126" /></g></svg>
