<?xml version="1.0" encoding="UTF-8" standalone="no"?>
<!-- Created with Inkscape (http://www.inkscape.org/) -->

<svg
   width="120"
   height="320"
   viewBox="0 0 120 320"
   version="1.1"
   id="svg1"
   inkscape:version="1.3.2 (091e20ef0f, 2023-11-25, custom)"
   sodipodi:docname="player.svg"
   inkscape:export-filename="player.png"
   inkscape:export-xdpi="96"
   inkscape:export-ydpi="96"
   xml:space="preserve"
   xmlns:inkscape="http://www.inkscape.org/namespaces/inkscape"
   xmlns:sodipodi="http://sodipodi.sourceforge.net/DTD/sodipodi-0.dtd"
   xmlns="http://www.w3.org/2000/svg"
   xmlns:svg="http://www.w3.org/2000/svg"><sodipodi:namedview
     id="namedview1"
     pagecolor="#505050"
     bordercolor="#ffffff"
     borderopacity="1"
     inkscape:showpageshadow="0"
     inkscape:pageopacity="0"
     inkscape:pagecheckerboard="1"
     inkscape:deskcolor="#505050"
     inkscape:document-units="px"
     inkscape:zoom="4.086974"
     inkscape:cx="52.483818"
     inkscape:cy="128.33456"
     inkscape:window-width="1444"
     inkscape:window-height="1043"
     inkscape:window-x="472"
     inkscape:window-y="0"
     inkscape:window-maximized="0"
     inkscape:current-layer="layer2"
     showgrid="true"><inkscape:grid
       id="grid7"
       units="px"
       originx="0"
       originy="0"
       spacingx="1"
       spacingy="1"
       empcolor="#0099e5"
       empopacity="0.30196078"
       color="#0099e5"
       opacity="0.1254902"
       empspacing="1"
       dotted="false"
       gridanglex="30"
       gridanglez="30"
       visible="true" /><inkscape:grid
       id="grid1"
       units="px"
       originx="0"
       originy="0"
       spacingx="40"
       spacingy="40"
       empcolor="#e50000"
       empopacity="0.30196078"
       color="#e50000"
       opacity="0.14901961"
       empspacing="0"
       dotted="false"
       gridanglex="30"
       gridanglez="30"
       visible="true" /></sodipodi:namedview><defs
     id="defs1"><inkscape:perspective
       sodipodi:type="inkscape:persp3d"
       inkscape:vp_x="-15.251036 : 225.78331 : 1"
       inkscape:vp_y="0 : 1350.9203 : 0"
       inkscape:vp_z="366.96139 : 225.78331 : 1"
       inkscape:persp3d-origin="175.85518 : 189.75877 : 1"
       id="perspective11" /></defs><g
     inkscape:label="Layer 1"
     inkscape:groupmode="layer"
     id="layer1" /><g
     inkscape:groupmode="layer"
     id="layer2"
     inkscape:label="sprite"><rect
       style="fill:#0921e1;fill-opacity:0.999882;stroke-width:0.796233;stroke-dasharray:none;image-rendering:auto"
       id="rect16"
       width="24.775053"
       height="5.220314"
       x="-28.310053"
       y="-23.103371"
       transform="matrix(-0.00735523,-0.99997295,-0.99999051,-0.00435634,0,0)" /><path
       style="fill:#0214bf;fill-opacity:0.999882;stroke-width:0.930261;stroke-dasharray:none"
       d="m 10.688569,28.310277 9.538165,8.833086 8.833086,-9.538165 z"
       id="path16"
       sodipodi:nodetypes="cccc" /><rect
       style="fill:#0921e1;fill-opacity:0.999882;stroke-width:0.796233;stroke-dasharray:none;image-rendering:auto"
       id="rect16-53"
       width="24.775053"
       height="5.220314"
       x="-28.795364"
       y="256.01178"
       transform="matrix(-0.99997295,0.00735523,-0.00435634,0.99999051,0,0)" /><path
       style="fill:#0214bf;fill-opacity:0.999882;stroke-width:0.930261;stroke-dasharray:none"
       d="m 27.579643,268.42035 8.83309,-9.53816 -9.53817,-8.83309 z"
       id="path16-5"
       sodipodi:nodetypes="cccc" /><rect
       style="fill:#0921e1;fill-opacity:0.999882;stroke-width:0.796233;stroke-dasharray:none;image-rendering:auto"
       id="rect16-1"
       width="24.775053"
       height="5.220314"
       x="12.608467"
       y="-104.29619"
       transform="matrix(0.99997295,-0.00735523,0.00435634,-0.99999051,0,0)" /><path
       style="fill:#0214bf;fill-opacity:0.999882;stroke-width:0.930261;stroke-dasharray:none"
       d="m 12.253431,91.57965 -8.8330804,9.53816 9.5381604,8.83309 z"
       id="path16-2"
       sodipodi:nodetypes="cccc" /><rect
       style="fill:#0921e1;fill-opacity:0.999882;stroke-width:0.796233;stroke-dasharray:none;image-rendering:auto"
       id="rect16-3"
       width="24.775053"
       height="5.220314"
       x="171.5275"
       y="15.427144"
       transform="matrix(0.00735523,0.99997295,0.99999051,0.00435634,0,0)" /><path
       style="fill:#0214bf;fill-opacity:0.999882;stroke-width:0.930261;stroke-dasharray:none"
       d="m 29.311429,171.68972 -9.53816,-8.83308 -8.83309,9.53816 z"
       id="path16-6"
       sodipodi:nodetypes="cccc" /><rect
       style="fill:#0921e1;fill-opacity:0.999882;stroke-width:0.796233;stroke-dasharray:none;image-rendering:auto"
       id="rect16-5"
       width="24.775053"
       height="5.220314"
       x="105.57014"
       y="-83.659523"
       transform="matrix(0.68484634,0.72868751,0.73665804,-0.67626543,0,0)" /><path
       style="fill:#0214bf;fill-opacity:0.999882;stroke-width:0.930261;stroke-dasharray:none"
       d="M 20,125 H 7.0000005 v 13 z"
       id="path16-3"
       sodipodi:nodetypes="cccc" /><rect
       style="fill:#0921e1;fill-opacity:0.999882;stroke-width:0.796233;stroke-dasharray:none;image-rendering:auto"
       id="rect16-5-61"
       width="24.775053"
       height="5.220314"
       x="-36.368595"
       y="-62.421089"
       transform="matrix(0.72868751,-0.68484634,-0.67626543,-0.73665804,0,0)" /><path
       style="fill:#0214bf;fill-opacity:0.999882;stroke-width:0.930261;stroke-dasharray:none"
       d="m 7.2081903,61.560785 v 13 H 20.208191 Z"
       id="path16-3-8"
       sodipodi:nodetypes="cccc" /><rect
       style="fill:#0921e1;fill-opacity:0.999882;stroke-width:0.796233;stroke-dasharray:none;image-rendering:auto"
       id="rect16-5-9"
       width="24.775053"
       height="5.220314"
       x="134.60878"
       y="-53.650211"
       transform="matrix(0.68484634,0.72868751,0.73665804,-0.67626543,0,0)" /><path
       style="fill:#0214bf;fill-opacity:0.999882;stroke-width:0.930261;stroke-dasharray:none"
       d="m 61.993617,125.86584 h -13 v 13 z"
       id="path16-3-1"
       sodipodi:nodetypes="cccc" /><rect
       style="fill:#0921e1;fill-opacity:0.999882;stroke-width:0.796233;stroke-dasharray:none;image-rendering:auto"
       id="rect16-5-93"
       width="24.775053"
       height="5.220314"
       x="160.87987"
       y="-23.085224"
       transform="matrix(0.68484634,0.72868751,0.73665804,-0.67626543,0,0)" /><path
       style="fill:#0214bf;fill-opacity:0.999882;stroke-width:0.930261;stroke-dasharray:none"
       d="M 102.50121,124.33921 H 89.501213 v 13 z"
       id="path16-3-6"
       sodipodi:nodetypes="cccc" /><rect
       style="fill:#0921e1;fill-opacity:0.999882;stroke-width:0.796233;stroke-dasharray:none;image-rendering:auto"
       id="rect16-5-6"
       width="24.775053"
       height="5.220314"
       x="124.61373"
       y="171.28053"
       transform="matrix(-0.72868751,0.68484634,0.67626543,0.73665804,0,0)" /><path
       style="fill:#0214bf;fill-opacity:0.999882;stroke-width:0.930261;stroke-dasharray:none"
       d="m 33.530329,220.84558 v -13 h -13 z"
       id="path16-3-18"
       sodipodi:nodetypes="cccc" /><rect
       style="fill:#0921e1;fill-opacity:0.999882;stroke-width:0.796233;stroke-dasharray:none;image-rendering:auto"
       id="rect16-5-6-6"
       width="24.775053"
       height="5.220314"
       x="-244.03108"
       y="189.35808"
       transform="matrix(-0.68484634,-0.72868751,-0.73665804,0.67626543,0,0)" /><path
       style="fill:#0214bf;fill-opacity:0.999882;stroke-width:0.930261;stroke-dasharray:none"
       d="m 18.302505,314.38241 h 13 v -13 z"
       id="path16-3-18-1"
       sodipodi:nodetypes="cccc" /><rect
       style="fill:#0921e1;fill-opacity:0.999882;stroke-width:0.796233;stroke-dasharray:none;image-rendering:auto"
       id="rect16-5-0"
       width="24.775053"
       height="5.220314"
       x="94.444519"
       y="199.32785"
       transform="matrix(-0.72868751,0.68484634,0.67626543,0.73665804,0,0)" /><path
       style="fill:#0214bf;fill-opacity:0.999882;stroke-width:0.930261;stroke-dasharray:none"
       d="m 74.481679,220.84559 v -13 H 61.481682 Z"
       id="path16-3-2"
       sodipodi:nodetypes="cccc" /><rect
       style="fill:#0921e1;fill-opacity:0.999882;stroke-width:0.796233;stroke-dasharray:none;image-rendering:auto"
       id="rect16-5-92"
       width="24.775053"
       height="5.220314"
       x="63.801014"
       y="226.4276"
       transform="matrix(-0.72868751,0.68484634,0.67626543,0.73665804,0,0)" /><path
       style="fill:#0214bf;fill-opacity:0.999882;stroke-width:0.930261;stroke-dasharray:none"
       d="m 115.13785,219.82275 v -13 h -13 z"
       id="path16-3-28"
       sodipodi:nodetypes="cccc" /><path
       style="fill:#f6f7ff;fill-opacity:0.999882;stroke-width:0.0865074;stroke-dasharray:none"
       d="m 48.018061,66.148165 v -6.42263 l 2.593855,2.59278 2.593855,2.59277 0.412276,-0.39676 c 0.226752,-0.21822 3.993681,-3.75592 8.370955,-7.86157 4.377273,-4.10565 8.196711,-7.69596 8.48764,-7.97845 l 0.528962,-0.51363 1.692574,1.8458 c 0.930915,1.0152 1.705019,1.87061 1.720229,1.90092 0.01521,0.0303 -3.913836,3.75967 -8.731215,8.28747 -4.81738,4.5278 -8.758872,8.27873 -8.758872,8.33541 0,0.0567 0.885302,0.98899 1.967338,2.07179 l 1.967337,1.96874 h -6.422467 -6.422467 z"
       id="path17" /><path
       style="fill:#f6f7ff;fill-opacity:0.999882;stroke-width:0.0865074;stroke-dasharray:none"
       d="m 89.117554,66.169155 c 0,-3.52085 0.0292,-6.40124 0.06488,-6.40086 0.03568,3.8e-4 1.21284,1.14807 2.615901,2.55043 l 2.551021,2.54973 0.476738,-0.46095 c 0.262206,-0.25352 4.038678,-3.80106 8.392156,-7.88344 4.35348,-4.08237 8.13404,-7.63417 8.40122,-7.89289 l 0.4858,-0.4704 1.69249,1.8457 c 0.93086,1.01514 1.70493,1.8706 1.72013,1.90101 0.0152,0.0304 -1.41269,1.41012 -3.17311,3.066 -8.43611,7.93512 -13.283718,12.49788 -13.79682,12.98608 l -0.563401,0.53606 2.032231,2.03754 2.03224,2.03754 h -6.46574 -6.465736 z"
       id="path18" /><rect
       style="fill:#f6f7ff;fill-opacity:0.999882;stroke-width:1;stroke-dasharray:none"
       id="rect18"
       width="6"
       height="6"
       x="51.218258"
       y="50.524067" /><rect
       style="fill:#0921e1;fill-opacity:0.999882;stroke-width:0.796233;stroke-dasharray:none;image-rendering:auto"
       id="rect16-5-6-6-4"
       width="24.775053"
       height="5.220314"
       x="-269.73132"
       y="159.94986"
       transform="matrix(-0.68484634,-0.72868751,-0.73665804,0.67626543,0,0)" /><path
       style="fill:#0214bf;fill-opacity:0.999882;stroke-width:0.930261;stroke-dasharray:none"
       d="m 57.567024,313.22209 h 13 v -13 z"
       id="path16-3-18-1-5"
       sodipodi:nodetypes="cccc" /><rect
       style="fill:#ffffff;fill-opacity:0.999882;stroke-width:0.796233;stroke-dasharray:none;image-rendering:auto"
       id="rect16-5-6-6-1"
       width="24.775053"
       height="5.220314"
       x="-296.03146"
       y="129.35356"
       transform="matrix(-0.68484634,-0.72868751,-0.73665804,0.67626543,0,0)" /><path
       style="fill:#ffffff;fill-opacity:0.999882;stroke-width:0.930261;stroke-dasharray:none"
       d="m 98.117585,311.69546 h 12.999995 v -13 z"
       id="path16-3-18-1-0"
       sodipodi:nodetypes="cccc" /><path
       style="fill:#ffffff;fill-opacity:0.999882;stroke-width:0.173015;stroke-dasharray:none"
       d="m 54.458901,298.96308 -8.225025,-8.75602 1.0676,-0.98721 c 0.587179,-0.54296 1.420882,-1.30775 1.852674,-1.69953 l 0.785075,-0.71233 7.000588,7.44871 c 3.850324,4.09679 7.53815,8.02922 8.195166,8.73874 l 1.194577,1.29003 -1.710375,1.71681 c -0.940706,0.94425 -1.760973,1.71682 -1.822815,1.71682 -0.06184,0 -3.813701,-3.94021 -8.337465,-8.75602 z"
       id="path23" /><path
       style="fill:#ffffff;fill-opacity:0.999882;stroke-width:0.173015;stroke-dasharray:none"
       d="m 64.113417,306.85403 c 3.424701,-3.42569 6.246598,-6.22853 6.270883,-6.22853 0.02429,0 0.04415,2.80284 0.04415,6.22853 v 6.22853 h -6.270883 -6.270884 z"
       id="path24" /><path
       style="fill:#ffffff;fill-opacity:0.999882;stroke-width:0.173015;stroke-dasharray:none"
       d="m 49.796665,230.37264 c -0.89132,-0.96221 -1.633045,-1.80262 -1.648277,-1.8676 -0.01523,-0.065 3.905601,-3.80733 8.712964,-8.31635 l 8.740659,-8.19822 1.77986,1.79668 1.779859,1.79667 -8.75002,8.2182 c -4.812511,4.52001 -8.80502,8.24112 -8.872242,8.26914 -0.06722,0.028 -0.851484,-0.73632 -1.742803,-1.69852 z"
       id="path26" /><path
       style="fill:#ffffff;fill-opacity:0.999882;stroke-width:0.173015;stroke-dasharray:none"
       d="m 67.986272,214.1997 -6.313261,-6.31503 h 6.357403 6.357403 v 6.31503 c 0,3.47328 -0.01986,6.31504 -0.04414,6.31504 -0.02428,0 -2.88511,-2.84176 -6.357403,-6.31504 z"
       id="path27" /><path
       style="fill:#ffffff;fill-opacity:0.999882;stroke-width:0.173015;stroke-dasharray:none"
       d="m 91.688413,230.72505 c -0.237412,-0.28091 -0.998628,-1.12964 -1.691591,-1.88608 l -1.259934,-1.37535 8.650526,-8.14583 c 4.757786,-4.48022 8.712986,-8.14584 8.789326,-8.14584 0.29873,0 3.57556,3.45947 3.41364,3.60391 -0.80615,0.71908 -15.173996,14.21516 -16.17182,15.19059 l -1.298489,1.26934 z"
       id="path29" /><path
       style="fill:#ffffff;fill-opacity:0.999882;stroke-width:0.173015;stroke-dasharray:none"
       d="m 108.64474,213.16162 -6.31326,-6.31504 h 6.3574 6.3574 v 6.31504 c 0,3.47327 -0.0199,6.31503 -0.0441,6.31503 -0.0243,0 -2.88511,-2.84176 -6.3574,-6.31503 z"
       id="path30" /><path
       style="fill:#ffffff;fill-opacity:0.999882;stroke-width:0.173015;stroke-dasharray:none"
       d="m 102.2378,142.3309 c -4.315072,-4.59531 -7.996735,-8.53019 -8.181464,-8.74418 l -0.33587,-0.38908 1.717551,-1.72402 c 0.944654,-0.94821 1.76974,-1.70419 1.833526,-1.67995 0.06379,0.0242 3.817767,3.97582 8.342187,8.78131 l 8.22623,8.73724 -1.7652,1.67939 c -0.97086,0.92367 -1.81609,1.68277 -1.87828,1.6869 -0.0622,0.004 -3.6436,-3.7523 -7.95868,-8.34761 z"
       id="path32" /><path
       style="fill:#ffffff;fill-opacity:0.999882;stroke-width:0.173015;stroke-dasharray:none"
       d="m 89.634301,130.70281 v -6.31504 h 6.357403 6.357396 l -6.313253,6.31504 c -3.472293,3.47327 -6.333125,6.31503 -6.357403,6.31503 -0.02428,0 -0.04414,-2.84176 -0.04414,-6.31503 z"
       id="path33" /><path
       style="fill:#ffffff;fill-opacity:0.999882;stroke-width:0.173015;stroke-dasharray:none"
       d="m 61.869636,144.02073 c -4.251742,-4.5208 -7.930983,-8.45796 -8.176092,-8.74925 l -0.445653,-0.52963 1.711113,-1.71756 c 0.941113,-0.94466 1.764917,-1.69773 1.830677,-1.67349 0.06576,0.0242 3.816104,3.97582 8.334099,8.78131 l 8.214537,8.73724 -1.484503,1.38296 c -0.816475,0.76062 -1.657581,1.5191 -1.869121,1.68549 -0.383514,0.30168 -0.406825,0.27893 -8.115057,-7.91707 z"
       id="path35" /><path
       style="fill:#ffffff;fill-opacity:0.999882;stroke-width:0.173015;stroke-dasharray:none"
       d="m 49.14885,132.18649 v -6.24159 h 6.241984 6.241985 l -3.506986,3.61984 c -1.928842,1.99091 -4.737735,4.79963 -6.241984,6.24159 l -2.734999,2.62174 z"
       id="path36" /><rect
       style="fill:#f6f7ff;fill-opacity:0.999882;stroke-width:1;stroke-dasharray:none"
       id="rect18-0"
       width="6"
       height="6"
       x="108.21825"
       y="64.118774" /><rect
       style="fill:#f6f7ff;fill-opacity:0.999882;stroke-width:1;stroke-dasharray:none"
       id="rect18-5"
       width="6"
       height="6"
       x="63.493618"
       y="128.36584" /><rect
       style="fill:#f6f7ff;fill-opacity:0.999882;stroke-width:1;stroke-dasharray:none"
       id="rect18-56"
       width="6"
       height="6"
       x="89.493622"
       y="142.36584" /><rect
       style="fill:#f6f7ff;fill-opacity:0.999882;stroke-width:1;stroke-dasharray:none"
       id="rect18-4"
       width="6"
       height="6"
       x="64.16449"
       y="224.3392" /><rect
       style="fill:#f6f7ff;fill-opacity:0.999882;stroke-width:1;stroke-dasharray:none"
       id="rect18-47"
       width="6"
       height="6"
       x="88.16449"
       y="209.3392" /><rect
       style="fill:#f6f7ff;fill-opacity:0.999882;stroke-width:1;stroke-dasharray:none"
       id="rect18-07"
       width="6"
       height="6"
       x="44.973366"
       y="302.48355" /><rect
       style="fill:#f6f7ff;fill-opacity:0.999882;stroke-width:1;stroke-dasharray:none"
       id="rect18-8"
       width="6"
       height="6"
       x="104.97337"
       y="286.48355" /></g></svg>
